# xmcd
# 
# Track frame offsets:
#     182
#     17567
#     33967
#     53575
#     71492
#     93182
#     112497
#     129305
#     144972
#     163352
# 
# Disc length: 2387
# 
# Revision: 3
# Processed by: cddbd v1.5.2PL0 Copyright (c) Steve Scherf et al.
# Submitted via: fre:ac v1.0.31
# 
DISCID=8209510a
DTITLE=John Mellencamp - The Lonesome Jubilee
DYEAR=1987
DGENRE=Rock/Pop
TTITLE0=Paper in Fire
TTITLE1=Down and Out in Paradise
TTITLE2=Check It Out
TTITLE3=The Real Life
TTITLE4=Cherry Bomb
TTITLE5=We Are the People
TTITLE6=Empty Hands
TTITLE7=Hard Times for an Honest Man
TTITLE8=Hotdogs and Hamburgers
TTITLE9=Rooty Toot Toot
EXTD=
EXTT0=
EXTT1=
EXTT2=
EXTT3=
EXTT4=
EXTT5=
EXTT6=
EXTT7=
EXTT8=
EXTT9=
PLAYORDER=
